<svg width="110" height="90" viewBox="0 0 110 90" fill="none" xmlns="http://www.w3.org/2000/svg">
<path d="M0 0H110V90H0V0Z" fill="url(#paint0_linear_939_389)"/>
<path d="M36.7225 51.9874C36.2959 51.9795 35.8725 52.0681 35.4843 52.2446C35.0961 52.421 34.7503 52.6814 34.475 53.0076C33.8767 53.6945 33.5779 54.5462 33.5771 55.5617C33.5771 56.6439 33.8673 57.5245 34.4468 58.2036C34.7197 58.533 35.064 58.7973 35.4522 58.9761C35.8411 59.1541 36.2661 59.2427 36.6935 59.2349C37.6589 59.2349 38.4391 58.9031 39.0351 58.2389C39.6303 57.5512 39.9283 56.6784 39.9275 55.6189C39.9275 54.5603 39.6288 53.6875 39.0351 52.9997C38.4407 52.3246 37.6698 51.9866 36.7233 51.9866L36.7225 51.9874Z" fill="white"/>
<path d="M67.39 44.3099H65.09C65.0014 44.3099 64.93 44.3813 64.93 44.4699V51.2626C63.8878 50.1812 62.706 49.6401 61.3847 49.6401C59.93 49.6095 58.538 50.2353 57.5947 51.3434C57.0818 51.9135 56.6991 52.5557 56.4466 53.2701L56.4247 52.2993C56.8826 38.8465 62.4049 24.0558 65.108 17.1471C65.1104 17.1408 65.1135 17.1338 65.1159 17.1275C65.4193 16.3441 64.3795 15.7199 63.7553 16.3112L63.4628 16.588L14.2689 65.5286L14.2132 65.5835C14.1536 65.6423 14.101 65.709 14.0658 65.7842C14.0179 65.887 13.9936 66.003 14.0015 66.1246C14.0273 66.5528 14.4406 66.8641 14.8641 66.77C15.1864 66.6978 15.7408 66.4814 16.2411 66.2571C18.676 65.2181 21.532 64.793 24.6225 64.793C31.9438 64.793 40.5808 67.1762 48.0495 69.4182C53.1475 70.9497 57.6621 72.0766 60.1276 72.4765C61.6074 72.7165 61.9046 72.2381 61.2686 71.4093C58.4973 67.7926 57.081 63.2552 56.5987 58.2968C56.8442 58.8716 57.1767 59.3978 57.5954 59.8746C58.6149 60.9999 59.8978 61.5629 61.4435 61.5629C62.7413 61.5622 63.9035 61.0595 64.9308 60.0557V61.0791C64.9308 61.1669 65.0021 61.2383 65.0908 61.2383H67.3908C67.4786 61.2383 67.55 61.1669 67.55 61.0791V44.4683C67.55 44.3805 67.4786 44.3092 67.3908 44.3092L67.39 44.3099ZM42.3837 61.0814C42.3837 61.1685 42.3131 61.2391 42.2261 61.2391H39.9237C39.8359 61.2391 39.7653 61.1685 39.7653 61.0814V60.0557C38.6917 61.0603 37.5366 61.5629 36.3015 61.5637C34.7402 61.5637 33.4502 61.0007 32.4307 59.8746C31.4183 58.7234 30.9125 57.286 30.9125 55.5639C30.9125 53.8418 31.4183 52.4663 32.4307 51.3339C32.9013 50.7913 33.4863 50.3584 34.1434 50.0659C34.799 49.775 35.5134 49.6307 36.2317 49.6456C37.5445 49.6456 38.7231 50.1875 39.7661 51.2689V50.1106C39.7661 50.0236 39.8366 49.953 39.9245 49.953H42.2261C42.3131 49.953 42.3845 50.0243 42.3845 50.1114V61.0814H42.3837ZM51.2145 50.5129L50.2413 52.4585C50.1794 52.5816 50.0256 52.6286 49.908 52.5565C49.4877 52.2961 49.0768 52.166 48.6737 52.1652C47.252 52.1652 46.5415 53.2395 46.5423 55.3874V61.0822C46.5423 61.1693 46.4717 61.2399 46.3846 61.2399H44.0932C44.0054 61.2399 43.9348 61.1693 43.9348 61.0822V50.1114C43.9348 50.0243 44.0054 49.9538 44.0932 49.9538H46.3831C46.4701 49.9538 46.5407 50.0243 46.5407 50.1114V50.9615C47.0238 50.4596 47.4488 50.1161 47.8158 49.9302C48.2346 49.7271 48.6957 49.6283 49.1607 49.6393C49.7873 49.6393 50.4397 49.8259 51.1165 50.1984C51.2286 50.2588 51.2717 50.3992 51.2153 50.5129H51.2145ZM54.7143 61.0814C54.7143 61.1685 54.6438 61.2391 54.5567 61.2391H52.2653C52.1775 61.2391 52.1077 61.1685 52.1077 61.0814V50.1106C52.1077 50.0236 52.1775 49.953 52.2653 49.953H54.5567C54.6438 49.953 54.7143 50.0236 54.7143 50.1106V61.0814ZM54.9833 47.3965C54.897 47.6043 54.7692 47.7918 54.6085 47.9478C54.4548 48.1086 54.2697 48.2372 54.0642 48.3219C53.8588 48.4081 53.6376 48.4497 53.4157 48.445C53.1914 48.445 52.9679 48.4026 52.7609 48.3164C52.5531 48.2301 52.3649 48.1039 52.2057 47.9439C52.0481 47.7839 51.9218 47.5949 51.8371 47.3871C51.7524 47.1793 51.7109 46.9558 51.7117 46.7307C51.7117 46.5998 51.7258 46.4704 51.7556 46.3441C51.776 46.2563 51.8034 46.17 51.8379 46.0877C51.9234 45.8838 52.0496 45.7019 52.2096 45.5482C52.3665 45.3898 52.5531 45.2635 52.7593 45.1773C52.9648 45.0918 53.1859 45.0479 53.4079 45.0479C53.6298 45.0479 53.8525 45.0918 54.058 45.1773C54.2634 45.2635 54.4493 45.389 54.6077 45.5482C54.7684 45.7019 54.897 45.8862 54.9825 46.0924C55.0162 46.1747 55.0437 46.2587 55.0633 46.3449C55.0947 46.4743 55.108 46.6084 55.1056 46.7409C55.1096 46.9652 55.0664 47.1887 54.9817 47.3957L54.9833 47.3965ZM64.2015 58.238C63.6055 58.9014 62.8252 59.2339 61.8607 59.2339C60.9934 59.2504 60.1652 58.8708 59.6116 58.2027C59.0329 57.5236 58.7435 56.6429 58.7435 55.5607C58.7427 54.5444 59.0399 53.6928 59.6359 53.0066C60.1943 52.3463 61.0192 51.9715 61.8834 51.9864C62.8331 51.9864 63.6055 52.3244 64.2015 52.9996C64.7967 53.6865 65.0939 54.5601 65.0939 55.6188C65.0939 56.6774 64.7967 57.5502 64.2015 58.238Z" fill="white"/>
<path d="M74.7926 49.6377C73.6728 49.6377 72.6486 50.0549 71.7209 50.8892V44.4683C71.7209 44.3804 71.6496 44.3091 71.5617 44.3091H69.2734C69.1856 44.3091 69.1143 44.3804 69.1143 44.4683V61.0829C69.1143 61.1708 69.1856 61.2421 69.2734 61.2421H71.5547C71.6425 61.2421 71.7139 61.1708 71.7139 61.0829V55.7842C71.7029 54.3844 71.884 53.4034 72.2589 52.8403C72.6337 52.2773 73.2767 51.9965 74.188 51.9965C74.8977 51.9934 75.4137 52.1941 75.7352 52.5996C76.0567 53.005 76.2175 53.6598 76.2175 54.564V61.079C76.2175 61.1668 76.2888 61.2382 76.3767 61.2382H78.6649C78.7528 61.2382 78.8241 61.1668 78.8241 61.079V54.3201C78.8241 52.7438 78.4995 51.5966 77.8509 50.8783C77.0856 50.0509 76.0661 49.6377 74.7918 49.6377H74.7926Z" fill="white"/>
<path d="M95.3959 49.9522H93.0959C93.0073 49.9522 92.9359 50.0235 92.9359 50.1114V51.2688C91.893 50.1867 90.7143 49.6456 89.4016 49.6456C87.9469 49.6158 86.5542 50.2345 85.6006 51.3339C84.589 52.4663 84.084 53.8763 84.084 55.5646C84.084 57.253 84.589 58.7234 85.6006 59.8753C86.6208 61.0007 87.9108 61.5637 89.4714 61.5637C90.708 61.5629 91.8632 61.0603 92.9359 60.0565V61.0799C92.9359 61.1677 93.0073 61.2391 93.0959 61.2391H95.3959C95.4838 61.2391 95.5551 61.1677 95.5551 61.0799V50.1114C95.5551 50.0235 95.4838 49.9522 95.3959 49.9522ZM92.2066 58.2379C91.6107 58.9022 90.8304 59.2339 89.8658 59.2339C88.9985 59.2503 88.1704 58.8708 87.6168 58.2027C87.038 57.5235 86.7487 56.6429 86.7487 55.5607C86.7479 54.5444 87.0451 53.6928 87.6411 53.0066C88.1994 52.3463 89.0244 51.9715 89.8886 51.9864C90.8382 51.9864 91.6107 52.3244 92.2066 52.9995C92.8026 53.6865 93.0998 54.5601 93.099 55.6187C93.0983 56.6774 92.8011 57.5502 92.2066 58.2379Z" fill="white"/>
<path d="M82.6524 49.9546H80.3633C80.2754 49.9546 80.2041 50.0259 80.2041 50.1138V61.0823C80.2041 61.1702 80.2754 61.2415 80.3633 61.2415H82.6524C82.7403 61.2415 82.8115 61.1702 82.8115 61.0823V50.1138C82.8115 50.0259 82.7403 49.9546 82.6524 49.9546Z" fill="white"/>
<path d="M82.6955 45.5358C82.0328 44.8794 80.964 44.8841 80.3076 45.5468C79.9853 45.855 79.8057 46.2831 79.8096 46.7285V46.7301C79.8096 46.7364 79.8096 46.7419 79.8096 46.7481C79.812 47.6868 80.5742 48.4467 81.5137 48.4451C81.9638 48.4545 82.3967 48.2734 82.7064 47.9472C83.0327 47.6319 83.2138 47.1951 83.206 46.7411C83.2146 46.291 83.0334 45.8573 82.7064 45.5475C82.7025 45.5436 82.6994 45.5405 82.6955 45.5366V45.5358Z" fill="white"/>
<defs>
<linearGradient id="paint0_linear_939_389" x1="0" y1="0" x2="106.19" y2="94.2907" gradientUnits="userSpaceOnUse">
<stop stop-color="#AA0A27"/>
<stop offset="0.671875" stop-color="#A21441"/>
</linearGradient>
</defs>
</svg>
